<svg width="10" height="11" viewBox="0 0 10 11" fill="none" xmlns="http://www.w3.org/2000/svg">
<path d="M8.02302 3.73737L8.02301 3.73738L4.99997 6.76042L1.97693 3.73738L1.97694 3.73737L1.97569 3.73617C1.83895 3.6041 1.65582 3.53103 1.46573 3.53268C1.27563 3.53433 1.09379 3.61058 0.959372 3.745C0.824952 3.87942 0.748704 4.06126 0.747053 4.25135C0.745401 4.44144 0.818476 4.62458 0.950542 4.76132L0.950531 4.76133L0.95176 4.76255L4.48738 8.29818L4.48739 8.29819C4.62335 8.43411 4.80773 8.51046 4.99997 8.51046C5.19221 8.51046 5.37659 8.43411 5.51254 8.29819L5.51256 8.29818L9.04818 4.76256L9.04819 4.76254C9.18411 4.62659 9.26046 4.44221 9.26046 4.24997C9.26046 4.05773 9.18411 3.87335 9.04819 3.73739L9.04817 3.73737C8.91221 3.60146 8.72784 3.5251 8.5356 3.5251C8.34335 3.5251 8.15898 3.60146 8.02302 3.73737Z" fill="#555555" stroke="#555555" stroke-width="0.2"/>
</svg>
