<svg width="81" height="17" viewBox="0 0 81 17" fill="none" xmlns="http://www.w3.org/2000/svg">
<path d="M0.7 16L1.66 12.62V10.08L3.14 9.48L5.74 1.86H10.92L14.14 10.82L15.68 13.66V16H12.14L11.14 12.8H5.32L4.46 16H0.7ZM6.64 9.72H10.04L8.52 5.14H8.1L6.64 9.72ZM17.0711 16V9.98L16.6711 7.78L17.2911 6.56H20.2711V7.42L20.4511 7.54C20.5978 7.40667 20.7978 7.25333 21.0511 7.08C21.3178 6.89333 21.6378 6.72667 22.0111 6.58C22.3844 6.43333 22.8044 6.36 23.2711 6.36C24.4711 6.36 25.3711 6.7 25.9711 7.38C26.5711 8.06 26.8711 9.01333 26.8711 10.24V12.78L27.2911 14.78L26.8711 16H23.2711V10.76C23.2711 10.2533 23.1578 9.86667 22.9311 9.6C22.7178 9.32 22.3778 9.18 21.9111 9.18L20.6711 9.56V16H17.0711ZM31.0195 5.98L28.4795 3.42L31.0195 0.879999L33.5595 3.42L31.0195 5.98ZM29.2195 16V9.38L28.7995 7.78L29.1995 6.56H32.8195V16H29.2195ZM35.4594 16V5.06L35.0594 3.06L35.4794 1.86H39.2994L43.2194 9.46H43.6194L46.8594 1.86H50.8394L51.0394 3.06L50.8394 4.98V16H47.2194L47.2794 14.3V8.72H47.0594L46.2594 10.64L44.4594 14H42.0594L39.2994 8.72H39.0994V10.34L39.2994 16H35.4594ZM57.8583 16.2C56.2316 16.2 54.9716 15.8133 54.0783 15.04C53.1849 14.2667 52.7383 13.0133 52.7383 11.28C52.7383 9.53333 53.1849 8.28 54.0783 7.52C54.9716 6.74667 56.2316 6.36 57.8583 6.36C59.5249 6.36 60.7849 6.74667 61.6383 7.52C62.5049 8.28 62.9383 9.53333 62.9383 11.28C62.9383 13.0133 62.5049 14.2667 61.6383 15.04C60.7849 15.8133 59.5249 16.2 57.8583 16.2ZM57.8583 13.6C58.4049 13.6 58.7849 13.4 58.9983 13C59.2116 12.5867 59.3183 12.0133 59.3183 11.28C59.3183 10.5333 59.2116 9.96 58.9983 9.56C58.7849 9.16 58.4049 8.96 57.8583 8.96C57.2983 8.96 56.9049 9.16 56.6783 9.56C56.4649 9.96 56.3583 10.5333 56.3583 11.28C56.3583 12.0133 56.4649 12.5867 56.6783 13C56.9049 13.4 57.2983 13.6 57.8583 13.6ZM65.0297 16V5.06L64.6297 3.06L65.0497 1.86H68.8697L72.7897 9.46H73.1897L76.4297 1.86H80.4097L80.6097 3.06L80.4097 4.98V16H76.7897L76.8497 14.3V8.72H76.6297L75.8297 10.64L74.0297 14H71.6297L68.8697 8.72H68.6697V10.34L68.8697 16H65.0297Z" fill="#555555"/>
</svg>
