<svg width="20" height="21" viewBox="0 0 20 21" fill="none" xmlns="http://www.w3.org/2000/svg">
<path d="M3.33331 15.5C3.33331 14.6159 3.6845 13.7681 4.30962 13.1429C4.93474 12.5178 5.78259 12.1666 6.66665 12.1666H13.3333C14.2174 12.1666 15.0652 12.5178 15.6903 13.1429C16.3155 13.7681 16.6666 14.6159 16.6666 15.5C16.6666 15.942 16.4911 16.3659 16.1785 16.6785C15.8659 16.991 15.442 17.1666 15 17.1666H4.99998C4.55795 17.1666 4.13403 16.991 3.82147 16.6785C3.50891 16.3659 3.33331 15.942 3.33331 15.5Z" stroke="#555555" stroke-width="2" stroke-linejoin="round"/>
<path d="M10 8.83331C11.3807 8.83331 12.5 7.71402 12.5 6.33331C12.5 4.9526 11.3807 3.83331 10 3.83331C8.61929 3.83331 7.5 4.9526 7.5 6.33331C7.5 7.71402 8.61929 8.83331 10 8.83331Z" stroke="#555555" stroke-width="2"/>
</svg>
